<?xml version="1.0" encoding="utf-8"?>
<!-- Generator: Adobe Illustrator 28.3.0, SVG Export Plug-In . SVG Version: 6.00 Build 0)  -->
<svg version="1.1" id="Layer_1" xmlns="http://www.w3.org/2000/svg" xmlns:xlink="http://www.w3.org/1999/xlink" x="0px" y="0px"
	 viewBox="0 0 1280 1024" style="enable-background:new 0 0 1280 1024;" xml:space="preserve">
<style type="text/css">
	.st0{fill:#FFFF00;stroke:#000000;stroke-width:1.2072;stroke-miterlimit:10;}
	.st1{fill:#FFFF00;}
	.st2{fill:none;stroke:#000000;stroke-width:0.5174;stroke-miterlimit:10;}
	.st3{fill:none;stroke:#000000;stroke-width:0.4655;stroke-miterlimit:10;}
	.st4{fill:none;stroke:#000000;stroke-width:0.9228;stroke-miterlimit:10;}
	.st5{fill:none;stroke:#000000;stroke-width:0.8626;stroke-miterlimit:10;}
	.st6{fill:#FFFF00;stroke:#000000;stroke-width:0.3676;stroke-miterlimit:10;}
	.st7{fill:#FFFF00;stroke:#000000;stroke-width:0.5174;stroke-miterlimit:10;}
	.st8{fill:none;stroke:#FFFF00;stroke-miterlimit:10;}
	.st9{fill:#FBF8FF;}
</style>
<g>
	<path d="M618.5,1013.11c-67.58,0-133.14-13.24-194.86-39.34c-59.61-25.21-113.15-61.31-159.13-107.29s-82.07-99.51-107.29-159.12
		c-26.1-61.72-39.34-127.28-39.34-194.86s13.24-133.14,39.34-194.86c25.21-59.61,61.31-113.15,107.29-159.13
		s99.51-82.07,159.13-107.29c61.72-26.1,127.28-39.34,194.86-39.34s133.14,13.24,194.86,39.34
		c59.61,25.21,113.15,61.31,159.12,107.29s82.07,99.51,107.29,159.13c26.1,61.72,39.34,127.28,39.34,194.86
		s-13.24,133.14-39.34,194.86c-25.21,59.61-61.31,113.15-107.29,159.12s-99.51,82.07-159.12,107.29
		C751.64,999.88,686.08,1013.11,618.5,1013.11z"/>
	<path d="M618.5,13.78c67.33,0,132.64,13.19,194.12,39.19c59.39,25.12,112.72,61.08,158.53,106.88s81.76,99.14,106.88,158.53
		c26,61.48,39.19,126.8,39.19,194.12s-13.19,132.64-39.19,194.12c-25.12,59.39-61.08,112.72-106.88,158.53
		s-99.14,81.76-158.53,106.88c-61.48,26-126.8,39.19-194.12,39.19s-132.64-13.19-194.12-39.19
		c-59.39-25.12-112.72-61.08-158.53-106.88s-81.76-99.14-106.88-158.53c-26-61.48-39.19-126.8-39.19-194.12
		s13.19-132.64,39.19-194.12c25.12-59.39,61.08-112.72,106.88-158.53s99.14-81.76,158.53-106.88
		C485.86,26.96,551.17,13.78,618.5,13.78 M618.5,10C340.98,10,116,234.98,116,512.5S340.98,1015,618.5,1015S1121,790.02,1121,512.5
		S896.02,10,618.5,10L618.5,10z"/>
</g>
<path class="st0" d="M309.13,430.86"/>
<g>
	<path class="st1" d="M768.47,614.79c-30.26,0.75-30.77,1.35-31.4,37.23c-0.63-35.88-1.14-36.48-31.4-37.23
		c30.26-0.75,30.77-1.35,31.4-37.23C737.7,613.44,738.21,614.05,768.47,614.79z"/>
	<path class="st2" d="M768.47,614.79c-30.26,0.75-30.77,1.35-31.4,37.23c-0.63-35.88-1.14-36.48-31.4-37.23
		c30.26-0.75,30.77-1.35,31.4-37.23C737.7,613.44,738.21,614.05,768.47,614.79z"/>
</g>
<g>
	<path class="st1" d="M434.05,451.71c-27.25,4.81-27.63,5.41-23.42,36.91c-5.35-31.33-5.89-31.79-33.33-28.28
		c27.25-4.81,27.63-5.41,23.42-36.91C406.06,454.76,406.61,455.22,434.05,451.71z"/>
	<path class="st3" d="M434.05,451.71c-27.25,4.81-27.63,5.41-23.42,36.91c-5.35-31.33-5.89-31.79-33.33-28.28
		c27.25-4.81,27.63-5.41,23.42-36.91C406.06,454.76,406.61,455.22,434.05,451.71z"/>
</g>
<g>
	<path class="st1" d="M469.07,788.71c-46.64-34.06-48.03-33.85-85.29,12.95c35.35-48.26,35.19-49.65-9.94-85.69
		c46.64,34.06,48.03,33.85,85.29-12.95C423.78,751.28,423.94,752.67,469.07,788.71z"/>
	<path class="st4" d="M469.07,788.71c-46.64-34.06-48.03-33.85-85.29,12.95c35.35-48.26,35.19-49.65-9.94-85.69
		c46.64,34.06,48.03,33.85,85.29-12.95C423.78,751.28,423.94,752.67,469.07,788.71z"/>
</g>
<g>
	<path class="st1" d="M400.71,716.17c-52.6,6.7-53.39,7.75-48.56,64.47c-7.02-56.49-8.01-57.36-60.86-53.01
		c52.6-6.7,53.39-7.75,48.56-64.47C346.87,719.65,347.86,720.51,400.71,716.17z"/>
	<path class="st5" d="M400.71,716.17c-52.6,6.7-53.39,7.75-48.56,64.47c-7.02-56.49-8.01-57.36-60.86-53.01
		c52.6-6.7,53.39-7.75,48.56-64.47C346.87,719.65,347.86,720.51,400.71,716.17z"/>
</g>
<ellipse class="st6" cx="606.58" cy="574.98" rx="8.96" ry="6.43"/>
<circle class="st7" cx="997.5" cy="308.5" r="12"/>
<circle class="st7" cx="921.5" cy="512.5" r="12"/>
<circle class="st7" cx="645.5" cy="634.5" r="12"/>
<circle class="st7" cx="606.5" cy="575.5" r="12"/>
<g>
	<path class="st1" d="M604.09,501.09c-30.26,0.75-30.77,1.35-31.4,37.23c-0.63-35.88-1.14-36.48-31.4-37.23
		c30.26-0.75,30.77-1.35,31.4-37.23C573.32,499.74,573.83,500.34,604.09,501.09z"/>
	<path class="st2" d="M604.09,501.09c-30.26,0.75-30.77,1.35-31.4,37.23c-0.63-35.88-1.14-36.48-31.4-37.23
		c30.26-0.75,30.77-1.35,31.4-37.23C573.32,499.74,573.83,500.34,604.09,501.09z"/>
</g>
<circle class="st7" cx="531.5" cy="398.5" r="12"/>
<circle class="st7" cx="481.5" cy="351.5" r="12"/>
<circle class="st7" cx="421.5" cy="363.5" r="12"/>
<circle class="st7" cx="405.5" cy="607.5" r="12"/>
<circle class="st7" cx="457.5" cy="634.5" r="12"/>
<polyline class="st8" points="994.5,316.5 921.5,512.5 737.07,614.79 651.5,634.5 606.58,581.41 572.7,501.09 531.5,410.5 
	481.5,351.5 421.5,363.5 405.68,456.03 405.5,607.5 457.5,634.5 421.45,752.34 346,721.9 393.5,607.5 "/>
<g>
	<circle class="st9" cx="552.5" cy="206.5" r="3.5"/>
</g>
<g>
	<circle class="st9" cx="693.5" cy="456.5" r="3.5"/>
</g>
<g>
	<circle class="st9" cx="317.5" cy="316.5" r="3.5"/>
</g>
<g>
	<circle class="st9" cx="686.5" cy="249.5" r="3.5"/>
</g>
<g>
	<circle class="st9" cx="627.5" cy="351.5" r="3.5"/>
</g>
<g>
	<circle class="st9" cx="433.5" cy="242.5" r="3.5"/>
</g>
<g>
	<circle class="st9" cx="256.5" cy="460.5" r="3.5"/>
</g>
<g>
	<circle class="st9" cx="606.5" cy="752.5" r="3.5"/>
</g>
<g>
	<circle class="st9" cx="822.5" cy="473.5" r="3.5"/>
</g>
<g>
	<circle class="st9" cx="766.5" cy="181.5" r="3.5"/>
</g>
<g>
	<circle class="st9" cx="493.5" cy="128.5" r="3.5"/>
</g>
<g>
	<circle class="st9" cx="819.5" cy="292.5" r="3.5"/>
</g>
<g>
	<circle class="st9" cx="606.5" cy="106.5" r="3.5"/>
</g>
<g>
	<circle class="st9" cx="356.5" cy="174.5" r="3.5"/>
</g>
<g>
	<circle class="st9" cx="308.5" cy="563.5" r="3.5"/>
</g>
<g>
	<circle class="st9" cx="481.5" cy="512.5" r="3.5"/>
</g>
<g>
	<circle class="st9" cx="259.5" cy="386.5" r="3.5"/>
</g>
<g>
	<circle class="st9" cx="548.5" cy="292.5" r="3.5"/>
</g>
<g>
	<circle class="st9" cx="298.5" cy="239.5" r="3.5"/>
</g>
<g>
	<circle class="st9" cx="961.5" cy="771.5" r="3.5"/>
</g>
<g>
	<circle class="st9" cx="829.5" cy="784.5" r="3.5"/>
</g>
<g>
	<circle class="st9" cx="1023.5" cy="464.5" r="3.5"/>
</g>
<g>
	<circle class="st9" cx="957.5" cy="671.5" r="3.5"/>
</g>
<g>
	<circle class="st9" cx="203.5" cy="660.5" r="3.5"/>
</g>
<g>
	<circle class="st9" cx="452.5" cy="422.5" r="3.5"/>
</g>
<g>
	<circle class="st9" cx="328.5" cy="826.5" r="3.5"/>
</g>
<g>
	<circle class="st9" cx="481.5" cy="841.5" r="3.5"/>
</g>
<g>
	<circle class="st9" cx="648.5" cy="868.5" r="3.5"/>
</g>
<g>
	<circle class="st9" cx="829.5" cy="708.5" r="3.5"/>
</g>
<g>
	<circle class="st9" cx="736.5" cy="959.5" r="3.5"/>
</g>
<g>
	<circle class="st9" cx="493.5" cy="909.5" r="3.5"/>
</g>
<g>
	<circle class="st9" cx="1063.5" cy="595.5" r="3.5"/>
</g>
<g>
	<circle class="st9" cx="556.5" cy="708.5" r="3.5"/>
</g>
<g>
	<circle class="st9" cx="822.5" cy="925.5" r="3.5"/>
</g>
<g>
	<circle class="st9" cx="864.5" cy="628.5" r="3.5"/>
</g>
<g>
	<circle class="st9" cx="736.5" cy="756.5" r="3.5"/>
</g>
<g>
	<circle class="st9" cx="172.5" cy="453.5" r="3.5"/>
</g>
<g>
	<circle class="st9" cx="705.5" cy="560.5" r="3.5"/>
</g>
<g>
	<circle class="st9" cx="417.5" cy="666.5" r="3.5"/>
</g>
<g>
	<circle class="st9" cx="909.5" cy="222.5" r="3.5"/>
</g>
<g>
	<circle class="st9" cx="618.5" cy="509.5" r="3.5"/>
</g>
<g>
	<circle class="st9" cx="789.5" cy="372.5" r="3.5"/>
</g>
<g>
	<circle class="st9" cx="911.5" cy="369.5" r="3.5"/>
</g>
<g>
	<circle class="st9" cx="606.5" cy="420.5" r="3.5"/>
</g>
<g>
	<circle class="st9" cx="553.5" cy="624.5" r="3.5"/>
</g>
<g>
	<circle class="st9" cx="736.5" cy="88.5" r="3.5"/>
</g>
<g>
	<circle class="st9" cx="175.5" cy="575.5" r="3.5"/>
</g>
<g>
	<circle class="st9" cx="1043.5" cy="386.5" r="3.5"/>
</g>
<g>
	<circle class="st9" cx="246.5" cy="722.5" r="3.5"/>
</g>
</svg>
