<?xml version="1.0" encoding="utf-8"?>
<!-- Generator: Adobe Illustrator 28.3.0, SVG Export Plug-In . SVG Version: 6.00 Build 0)  -->
<svg version="1.1" id="Layer_1" xmlns="http://www.w3.org/2000/svg" xmlns:xlink="http://www.w3.org/1999/xlink" x="0px" y="0px"
	 viewBox="0 0 1280 1024" style="enable-background:new 0 0 1280 1024;" xml:space="preserve">
<style type="text/css">
	.st0{fill:#FFFFFF;}
</style>
<g>
	<polygon class="st0" points="415.5,348.44 369.42,381.92 387.02,327.75 340.95,294.28 397.9,294.28 415.5,240.11 433.1,294.28 
		490.05,294.28 443.98,327.75 461.58,381.92 	"/>
	<path d="M415.5,241.73l17.01,52.36l0.22,0.69h0.73h55.05l-44.54,32.36l-0.59,0.43l0.22,0.69l17.01,52.36l-44.54-32.36l-0.59-0.43
		l-0.59,0.43l-44.54,32.36l17.01-52.36l0.22-0.69l-0.59-0.43l-44.54-32.36h55.05h0.73l0.22-0.69L415.5,241.73 M415.5,238.49
		l-17.96,55.28h-58.13l47.03,34.17l-17.96,55.28l47.03-34.17l47.03,34.17l-17.96-55.28l47.03-34.17h-58.13L415.5,238.49
		L415.5,238.49z"/>
</g>
</svg>
